<svg xmlns="http://www.w3.org/2000/svg" viewBox="0 0 100 100" enable-background="new 0 0 100 100"><path fill="#35424B" d="M50 100c-27.6 0-50-22.4-50-50s22.4-50 50-50 50 22.4 50 50-22.4 50-50 50zm0-97.8c-26.3 0-47.8 21.5-47.8 47.8 0 26.3 21.4 47.8 47.8 47.8s47.8-21.5 47.8-47.8c0-26.3-21.5-47.8-47.8-47.8zm23.6 59.3h-47.2c-.6 0-1.1-.5-1.1-1.1v-33.6c0-.6.5-1.1 1.1-1.1h47.2c.6 0 1.1.5 1.1 1.1v33.6c0 .6-.5 1.1-1.1 1.1zm-46.1-2.2h45v-31.4h-45v31.4zm22.5 11.7c-.6 0-1.1-.5-1.1-1.1v-8.3c0-.6.5-1.1 1.1-1.1s1.1.5 1.1 1.1v8.3c0 .6-.5 1.1-1.1 1.1zm10.6 3.3c-.3 0-.6-.1-.8-.3l-9.8-9.9-9.8 9.9c-.4.4-1.1.4-1.6 0-.4-.4-.4-1.1 0-1.6l10.6-10.7c.4-.4 1.2-.4 1.6 0l10.6 10.7c.4.4.4 1.1 0 1.6-.2.2-.5.3-.8.3zm12.7-39.5h-46.6c-.6 0-1.1-.5-1.1-1.1 0-.6.5-1.1 1.1-1.1h46.7c.6 0 1.1.5 1.1 1.1-.1.6-.6 1.1-1.2 1.1zm-35.4 20c-.6 0-1.1-.5-1.1-1.1v-6.7c0-.6.5-1.1 1.1-1.1.6 0 1.1.5 1.1 1.1v6.7c0 .6-.5 1.1-1.1 1.1zm8.1 0c-.6 0-1.1-.5-1.1-1.1v-13.9c0-.6.5-1.1 1.1-1.1.6 0 1.1.5 1.1 1.1v13.9c0 .6-.5 1.1-1.1 1.1zm8 0c-.6 0-1.1-.5-1.1-1.1v-4.4c0-.6.5-1.1 1.1-1.1.6 0 1.1.5 1.1 1.1v4.4c.1.6-.4 1.1-1.1 1.1zm8.1 0c-.6 0-1.1-.5-1.1-1.1v-11.2c0-.6.5-1.1 1.1-1.1.6 0 1.1.5 1.1 1.1v11.1c0 .7-.5 1.2-1.1 1.2z"/></svg>