<svg xmlns="http://www.w3.org/2000/svg" viewBox="0 0 100 100" enable-background="new 0 0 100 100"><path fill="#35424B" d="M49.9 99.8c-27.6 0-50-22.4-50-50s22.4-50 50-50 50 22.4 50 50-22.4 50-50 50zm0-97.8c-26.3 0-47.8 21.5-47.8 47.8s21.4 47.8 47.8 47.8 47.8-21.4 47.8-47.8-21.4-47.8-47.8-47.8zM28 42.3c-.3 0-.5-.1-.7-.3l-6.8-5.8c-.3-.3-.4-.6-.4-1 .1-.4.3-.7.7-.8l19.3-7.7c.4-.2.8-.1 1.1.2l6.8 5.8c.3.3.4.6.4 1-.1.4-.3.7-.7.8l-19.3 7.7c-.1 0-.2.1-.4.1zm-4.6-6.6l4.9 4.2 17-6.8-4.9-4.2-17 6.8zM47 74.2c-.2 0-.5-.1-.7-.2-.3-.2-.5-.5-.5-.9v-21.8c0-.6.5-1.1 1.1-1.1.6 0 1.1.5 1.1 1.1v20.2l21-6.5v-10.8c0-.6.5-1.1 1.1-1.1.6 0 1.1.5 1.1 1.1v11.6c0 .5-.3.9-.8 1.1l-23.1 7.3h-.3zM59.6 57.6c-.3 0-.5-.1-.7-.3l-6.8-5.8c-.3-.3-.4-.6-.4-1 .1-.4.3-.7.7-.8l19.3-7.7c.4-.2.8-.1 1.1.2l6.8 5.8c.3.3.4.6.4 1-.1.4-.3.7-.7.8l-19.3 7.7c-.2.1-.3.1-.4.1zm-4.7-6.6l4.9 4.2 17-6.8-4.9-4.2-17 6.8zM70.1 41.8c-.1 0-.3 0-.4-.1l-19.3-7.7c-.3-.1-.6-.4-.7-.8-.1-.4 0-.8.3-1l6.6-6.5c.3-.3.8-.4 1.2-.2l19.3 7.7c.3.1.6.4.7.8.1.4 0 .7-.3 1l-6.6 6.5c-.2.2-.5.3-.8.3zm-17.3-9.2l17.1 6.8 4.9-4.8-17.1-6.8-4.9 4.8zM46.6 74.2c-.1 0-.3 0-.4-.1l-17.9-7.3c-.4-.2-.7-.6-.7-1v-10.7c0-.6.5-1.1 1.1-1.1s1.1.5 1.1 1.1v10l17.2 7c.6.2.8.9.6 1.4-.2.4-.6.7-1 .7zM40.3 58.9c-.1 0-.3 0-.4-.1l-19.3-7.7c-.3-.1-.6-.4-.7-.8-.1-.4 0-.7.3-1l6.6-6.4c.3-.3.8-.4 1.2-.2l19.3 7.7c.3.1.6.4.7.8.1.4 0 .7-.3 1l-6.6 6.5c-.2.1-.5.2-.8.2zm-17.3-9.2l17.1 6.8 4.9-4.8-17.1-6.8-4.9 4.8z"/></svg>