<svg xmlns="http://www.w3.org/2000/svg" viewBox="0 0 100 100" enable-background="new 0 0 100 100"><path fill="#35424B" d="M49.8 100.2c-27.7 0-50.2-22.5-50.2-50.3 0-27.7 22.5-50.2 50.2-50.2 27.7 0 50.3 22.5 50.3 50.2 0 27.7-22.6 50.3-50.3 50.3zm0-98.3c-26.5 0-48 21.5-48 48s21.5 48 48 48 48-21.5 48-48c0-26.4-21.5-48-48-48zM74.4 61.6h-49.1c-.6 0-1.1-.5-1.1-1.1v-31.3c0-.6.5-1.1 1.1-1.1h49.1c.6 0 1.1.5 1.1 1.1v31.3c0 .6-.5 1.1-1.1 1.1zm-48-2.2h46.9v-29h-46.9v29zM69.9 57.1h-40.2c-.6 0-1.1-.5-1.1-1.1v-22.3c0-.6.5-1.1 1.1-1.1h40.2c.6 0 1.1.5 1.1 1.1v22.3c0 .6-.5 1.1-1.1 1.1zm-39.1-2.2h38v-20.1h-38v20.1zM58 71.8h-16.4c-.6 0-1.1-.5-1.1-1.1 0-.6.5-1.1 1.1-1.1h16.4c.6 0 1.1.5 1.1 1.1.1.6-.4 1.1-1.1 1.1zM44.1 71.1c-.6 0-1.1-.5-1.1-1.1v-9c0-.6.5-1.1 1.1-1.1.6 0 1.1.5 1.1 1.1v9c.1.6-.4 1.1-1.1 1.1zM55.5 71.1c-.6 0-1.1-.5-1.1-1.1v-9c0-.6.5-1.1 1.1-1.1.6 0 1.1.5 1.1 1.1v9c0 .6-.5 1.1-1.1 1.1zM45.2 52.1c-.7 0-1.4-.6-1.4-1.6v-10.8c0-1.5 1.3-1.9 2.3-1.4l9.3 5.4c.6.3.9.8.9 1.3s-.3 1-.9 1.4l-9.3 5.4c-.3.2-.6.3-.9.3zm.2-12.4v10.7l9.2-5.3-9.2-5.4z"/></svg>