<svg xmlns="http://www.w3.org/2000/svg" viewBox="0 0 100 100" enable-background="new 0 0 100 100"><path fill="#35424B" d="M50 100c-27.6 0-50-22.5-50-50 0-27.6 22.4-50 50-50s50 22.4 50 50c0 27.5-22.4 50-50 50zm0-97.8c-26.4 0-47.8 21.4-47.8 47.8 0 26.3 21.4 47.8 47.8 47.8s47.8-21.5 47.8-47.8c0-26.4-21.5-47.8-47.8-47.8z"/><path d="M58.2 26.4" fill="none"/><path fill="#424953" d="M50.1 31.5c-.6 0-1.1-.5-1.1-1.1 0-2.8 2.3-5.1 5.1-5.1h14.8c.6 0 1.1.5 1.1 1.1 0 .6-.5 1.1-1.1 1.1h-14.8c-1.6 0-2.9 1.3-2.9 2.9 0 .6-.5 1.1-1.1 1.1z"/><path d="M58.2 67.4" fill="none"/><path fill="#424953" d="M50.1 72.5c-.6 0-1.1-.5-1.1-1.1 0-2.8 2.3-5.1 5.1-5.1h14.8c.6 0 1.1.5 1.1 1.1s-.5 1.1-1.1 1.1h-14.8c-1.6 0-2.9 1.3-2.9 2.9 0 .6-.5 1.1-1.1 1.1z"/><path d="M41.9 26.4" fill="none"/><path fill="#424953" d="M50.1 31.5c-.6 0-1.1-.5-1.1-1.1 0-1.6-1.3-2.9-2.9-2.9h-14.8c-.6 0-1.1-.5-1.1-1.1 0-.6.5-1.1 1.1-1.1h14.8c2.8 0 5.1 2.3 5.1 5.1 0 .6-.5 1.1-1.1 1.1z"/><path d="M41.9 67.4" fill="none"/><path fill="#424953" d="M50.1 72.5c-.6 0-1.1-.5-1.1-1.1 0-1.6-1.3-2.9-2.9-2.9h-14.8c-.6 0-1.1-.5-1.1-1.1s.5-1.1 1.1-1.1h14.8c2.8 0 5.1 2.3 5.1 5.1 0 .6-.5 1.1-1.1 1.1zM31.1 68.5c-.6 0-1.1-.5-1.1-1.1v-40.9c0-.6.5-1.1 1.1-1.1.6 0 1.1.5 1.1 1.1v40.9c0 .6-.5 1.1-1.1 1.1zM68.9 68.5c-.6 0-1.1-.5-1.1-1.1v-40.9c0-.6.5-1.1 1.1-1.1.6 0 1.1.5 1.1 1.1v40.9c0 .6-.5 1.1-1.1 1.1zM50.1 71.8c-.6 0-1.1-.5-1.1-1.1v-41c0-.6.5-1.1 1.1-1.1.6 0 1.1.5 1.1 1.1v40.9c0 .7-.5 1.2-1.1 1.2zM74.4 74.6h-42.6c-.6 0-1.1-.5-1.1-1.1 0-.6.5-1.1 1.1-1.1h42v-43.8c0-.6.5-1.1 1.1-1.1.6 0 1.1.5 1.1 1.1v44.4c0 .9-.7 1.6-1.6 1.6zM68.2 74.6h-42.6c-.9 0-1.6-.7-1.6-1.6v-44.4c0-.6.5-1.1 1.1-1.1.6 0 1.1.5 1.1 1.1v43.8h42c.6 0 1.1.5 1.1 1.1 0 .6-.5 1.1-1.1 1.1z"/></svg>