<svg xmlns="http://www.w3.org/2000/svg" viewBox="0 0 100 100" enable-background="new 0 0 100 100"><path fill="#35424B" d="M50.1 100.2c-27.6 0-50.1-22.4-50.1-50.1 0-27.6 22.5-50.1 50.1-50.1s50.1 22.5 50.1 50.1c0 27.7-22.4 50.1-50.1 50.1zm0-98c-26.4 0-47.9 21.5-47.9 47.9s21.5 47.9 47.9 47.9 47.9-21.5 47.9-47.9-21.5-47.9-47.9-47.9zM74.4 75.5h-48.5c-.6 0-1.1-.5-1.1-1.1v-48.5c0-.6.5-1.1 1.1-1.1h48.5c.6 0 1.1.5 1.1 1.1v48.5c0 .6-.5 1.1-1.1 1.1zm-47.4-2.2h46.3v-46.3h-46.3v46.3zM73.6 40h-46.9c-.6 0-1.1-.5-1.1-1.1 0-.6.5-1.1 1.1-1.1h46.9c.6 0 1.1.5 1.1 1.1 0 .6-.5 1.1-1.1 1.1zM32.4 29.9c-1.4 0-2.5 1.1-2.5 2.5s1.1 2.5 2.5 2.5 2.5-1.1 2.5-2.5-1.1-2.5-2.5-2.5zM39.5 29.9c-1.4 0-2.5 1.1-2.5 2.5s1.1 2.5 2.5 2.5 2.5-1.1 2.5-2.5c-.1-1.4-1.2-2.5-2.5-2.5zM46.6 29.9c-1.4 0-2.5 1.1-2.5 2.5s1.1 2.5 2.5 2.5 2.5-1.1 2.5-2.5c-.1-1.4-1.2-2.5-2.5-2.5zM50.1 48.9h-15.2c-.6 0-1.1-.5-1.1-1.1 0-.6.5-1.1 1.1-1.1h15.2c.6 0 1.1.5 1.1 1.1 0 .6-.5 1.1-1.1 1.1zM50.1 56h-15.2c-.6 0-1.1-.5-1.1-1.1 0-.6.5-1.1 1.1-1.1h15.2c.6 0 1.1.5 1.1 1.1 0 .6-.5 1.1-1.1 1.1zM50.1 63h-15.2c-.6 0-1.1-.5-1.1-1.1 0-.6.5-1.1 1.1-1.1h15.2c.6 0 1.1.5 1.1 1.1 0 .6-.5 1.1-1.1 1.1zM65.3 63h-9.7c-.6 0-1.1-.5-1.1-1.1v-14.1c0-.6.5-1.1 1.1-1.1h9.7c.6 0 1.1.5 1.1 1.1v14.1c.1.6-.4 1.1-1.1 1.1zm-8.5-2.2h7.4v-11.9h-7.4v11.9z"/></svg>