<svg xmlns="http://www.w3.org/2000/svg" viewBox="0 0 200 40" enable-background="new 0 0 200 40"><g fill="#BE9558"><path d="M28.6 20c-.3 1.8-1.9 3.2-3.8 3.2-2.1 0-3.8-1.7-3.8-3.8 0-.8.2-1.5.7-2.1 2.2.9 4.5 1.9 6.9 2.7z"/><path fill-rule="evenodd" clip-rule="evenodd" d="M23 29v7h-21v-33h1.3c1.8 2.5 4.1 5 6.6 7h-.9v19h14zm25-4.9v11.9h-22v-7h15v-5.9c3 .5 5 .8 7 1z"/></g><g fill="#CEAD78"><path fill-rule="evenodd" clip-rule="evenodd" d="M23 3v7h-13.1c-2.6-2-4.8-4.5-6.6-7h19.7zm25 0v21.1c-2-.2-4-.5-7-1v-13.1h-6v-3h-5v3h-4v-7h22z"/><path d="M28.6 19.4c0 .2 0 .4-.1.6-2.4-.8-4.7-1.7-7-2.8.7-1 1.9-1.7 3.2-1.7 2.2 0 3.9 1.7 3.9 3.9z"/></g><path d="M9.9 10c3.4 2.8 7.4 5.3 11.7 7.3m7 2.7c4 1.4 8.1 2.4 12.3 3.2" fill="none"/><path d="M70.1 25.3c-1 1.1-2 2.7-2.3 3.4-1.5.4-2.7.6-5.2.6-5.6 0-9.5-4.1-9.5-9.6 0-5.1 4.3-9.7 9.5-9.7 1.9 0 3.5.4 4.8 1.1 0 0 .3.2.7.2.2 0 .5-.1.7-.3l.5.2-1.7 4.4-.6-.2s.1-.4.1-1c0-1.3-.7-3.4-5-3.4-3.9 0-6.2 3.9-6.2 8.8 0 3.4 1.8 8.3 7.7 8.3 2.4 0 4.3-1.4 5.9-3.1l.6.3zm.7 2.9c1.1-.1 1.8-.7 2.2-1.9l4.9-14.3c0-.1.1-.3.1-.6s-.2-.6-.9-.6v-.5h3.4l6 15.8c.6 1.5 1.4 2 2.3 2.1v.6h-7v-.6c1.5 0 2.2-.3 2.2-1 0-.2-.1-.5-.2-.9l-2-5.2h-5.8l-1.8 5.2c-.1.3-.2.7-.2.9 0 .8 1 .9 2.2 1v.6h-5.5v-.6zm10.7-8.1l-2.7-7-2.4 7h5.1zm16.1.2h-1.6v5.7c0 1.7 1.3 2 2.2 2.1v.6h-7v-.6c.9-.1 2.2-.4 2.2-2.1v-13c0-1.8-1.3-2.1-2.2-2.1v-.6h6.2c4.5 0 7.3 1.2 7.3 4.5 0 4.8-4.4 5.5-7.1 5.5zm-.4-1c2.6 0 5-1.2 5-4.2 0-3.2-1.9-3.9-5.4-3.9-.5 0-.7.2-.7.6v7.4h1.1zm22.3-9l-1.2 4.6-.7-.2c.1-.3.1-.6.1-1 0-1.5-1.6-2.7-3.8-2.7-2.4 0-3.4 1.5-3.4 2.9 0 2.1 2.3 2.9 4.7 4 2.6 1.2 5.3 2.1 5.3 5.1 0 3.9-2.8 6-5.8 6-3.4 0-4.2-1.5-5.3-1.5-.5 0-.9.2-1.1.9l-.5-.1.6-4.9.5.1c.4 2.5 2.2 4.3 5.8 4.3 2.1 0 3.7-1 3.7-3.1 0-2.4-2.3-3.1-4.7-4.3-2.5-1.1-5.2-2.4-5.2-5.2 0-3 2.3-5.3 5.4-5.3 2.1 0 3 1.1 4.2 1.1.4 0 .7-.3.8-.9l.6.2zm18.2 1.6c0 .8.1 1.6.2 2.4h-.5c-.2-1-.3-1.5-.7-2.1-.3-.4-.8-.8-1.4-.8h-4v14.6c0 1.4 1 2 1.9 2.1v.6h-6.3v-.6c.9-.1 1.9-.7 1.9-2.1v-14.6h-3.9c-.6 0-1.1.3-1.4.8-.4.6-.5 1.1-.7 2.1h-.5c.1-.8.1-1.6.1-2.3 0-.7-.1-1.3-.2-2l.3-.1.4.4c.3.2.6.2.7.2h12.7c.2 0 .6 0 .8-.2.1-.1.3-.3.4-.3l.3.1c0 .5-.1 1.1-.1 1.8zm20.2 7.6c0 5.6-4.4 9.7-9.6 9.7-5.1 0-9.5-4-9.5-9.7 0-5.6 4.4-9.7 9.5-9.7 5.2.1 9.6 4.1 9.6 9.7zm-2.8-.2c-.2-6.2-3.5-8.5-7-8.4-3.5.1-6.6 2.8-6.5 9 .2 6.2 3.5 8.5 7 8.4 3.6-.2 6.7-2.8 6.5-9zm20.8 8.8v.6h-4.4l-4.8-8.4c-.3-.5-.7-.9-1.3-.9h-1v6.6c0 1.7 1.3 2 2.2 2.1v.6h-7v-.6c.9-.1 2.2-.4 2.2-2.1v-13c0-1.8-1.3-2.1-2.2-2.1v-.6h6.9c3.8 0 6.1 1.4 6.1 4.1 0 3.2-1.8 4.2-3.6 4.7l4.2 7.3c.6 1 1.9 1.7 2.7 1.7zm-5.9-13.2c0-2.5-1.2-3.6-4.9-3.6-.5 0-.7.3-.7.9v6.4h1.4c3.3-.2 4.2-1.3 4.2-3.7zm22.1-4.6v.6c-1.2 0-1.7.2-2.4 1.1l-4.7 7.6v6.4c0 1.4.9 2 1.8 2.1v.6h-6.1v-.6c.9-.1 1.8-.7 1.8-2.1v-6.5l-5.5-7.6c-.8-.9-1.2-1.1-2.2-1.1v-.6h6.7v.6c-.6 0-1.5.1-1.5.7 0 .1 0 .2.2.4l4.5 6.2 3.8-6.2c.1-.2.2-.3.2-.4 0-.5-.9-.7-1.6-.7v-.6h5z" fill="#BE9558"/><path d="M195.6 7.6v.3h-.1l-.1-.3c0-.1-.1-.1-.2-.1h-.5v1.9c0 .2.1.3.3.3v.1h-.8c.1 0 .3-.1.3-.3v-1.9h-.5c-.1 0-.2 0-.2.1l-.1.3h-.1v-.6h2.1c-.1.1-.1.1-.1.2zm2.6 1.9c0 .2.2.3.3.3v.1h-.9v-.1c.1 0 .3-.1.3-.3v-1.8l-.8 1.5-.8-1.5v1.8c0 .2.1.3.3.3v.1h-.7v-.1c.1 0 .3-.1.3-.3v-1.7c0-.2-.1-.3-.2-.3v-.1h.6l.7 1.3.7-1.3h.5v.1c-.1 0-.2.1-.2.3v1.7z" fill="#C49A55"/></svg>