<svg xmlns="http://www.w3.org/2000/svg" viewBox="0 0 150 100" enable-background="new 0 0 150 100"><g fill="#BE9558"><path d="M85.5 50.4c-.9 5.4-5.6 9.5-11.2 9.5-6.3 0-11.3-5.1-11.3-11.3 0-2.4.7-4.5 1.9-6.4 6.7 3.1 13.5 5.8 20.6 8.2z"/><path fill-rule="evenodd" clip-rule="evenodd" d="M69 77v21h-62v-97h3.7c5.4 6 12 14 19.5 20h-2.2v56h41zM143 62.6v35.4h-65v-21h44v-17.3c9 1.3 15 2.2 21 2.9z"/></g><g fill="#CEAD78"><path fill-rule="evenodd" clip-rule="evenodd" d="M69 1v20h-38.8c-7.5-6-14-14-19.5-20h58.3zM143 1v61.6c-6-.7-12-1.6-21-2.8v-38.8h-18v-9h-14v9h-12v-20h65z"/><path d="M85.7 48.6c0 .6-.1 1.3-.2 1.9-7.1-2.4-14-5.1-20.6-8.2 2-3 5.5-5 9.4-5 6.3-.1 11.4 5 11.4 11.3z"/></g><path d="M30.2 20.8c10.1 8.4 21.9 15.5 34.7 21.4M85.5 50.4c11.7 4 23.9 7.1 36.3 9.3" fill="none"/></svg>